# xmcd
#
# Track frame offsets: 
#        150
#        33203
#        54247
#        91352
#        105097
#        127670
#        159701
#        204046
#        246092
#        272824
#        293211
#
# Disc length: 4785 seconds
#
# Revision: 0
# Processed by: cddbd v1.5.2PL0 Copyright (c) Steve Scherf et al.
# Submitted via: ExactAudioCopy v1.3
#
DISCID=8312af0b
DTITLE=Various Artist - Akella Presents - vol.209 - Blues-Rock Live! 
DTITLE=CD2
DYEAR=2019
DGENRE=Blues
TTITLE0=Mike Zito - Natural Born Lover
TTITLE1=Pat Travers - Black Betty
TTITLE2=Alvaro Assmar - Driftin' Blues
TTITLE3=The Alabama Lovesnakes - A Change In The Weather
TTITLE4=Blindside Blues Band - Blues In My Soul
TTITLE5=Miss Kaytie - You, Devil and Me
TTITLE6=Electric Mary - Already Gone
TTITLE7=Donnie B and The Hot Damn Band - This Love
TTITLE8=Andreas Diehlmann - Hey Joe
TTITLE9=Ben Granfelt - My Soul To You
TTITLE10=Matt O'Ree  - Worth the Live
EXTD=
EXTT0=
EXTT1=
EXTT2=
EXTT3=
EXTT4=
EXTT5=
EXTT6=
EXTT7=
EXTT8=
EXTT9=
EXTT10=
PLAYORDER=
